<?xml version="1.0" encoding="utf-8"?>
<!-- Generator: Adobe Illustrator 26.0.1, SVG Export Plug-In . SVG Version: 6.00 Build 0)  -->
<!DOCTYPE svg PUBLIC "-//W3C//DTD SVG 1.1//EN" "http://www.w3.org/Graphics/SVG/1.1/DTD/svg11.dtd" [
	<!ENTITY ns_extend "http://ns.adobe.com/Extensibility/1.0/">
	<!ENTITY ns_ai "http://ns.adobe.com/AdobeIllustrator/10.0/">
	<!ENTITY ns_graphs "http://ns.adobe.com/Graphs/1.0/">
	<!ENTITY ns_vars "http://ns.adobe.com/Variables/1.0/">
	<!ENTITY ns_imrep "http://ns.adobe.com/ImageReplacement/1.0/">
	<!ENTITY ns_sfw "http://ns.adobe.com/SaveForWeb/1.0/">
	<!ENTITY ns_custom "http://ns.adobe.com/GenericCustomNamespace/1.0/">
	<!ENTITY ns_adobe_xpath "http://ns.adobe.com/XPath/1.0/">
]>
<svg version="1.1" xmlns:x="&ns_extend;" xmlns:i="&ns_ai;" xmlns:graph="&ns_graphs;"
	 xmlns="http://www.w3.org/2000/svg" xmlns:xlink="http://www.w3.org/1999/xlink" x="0px" y="0px" width="750px" height="750px"
	 viewBox="0 0 750 750" style="enable-background:new 0 0 750 750;" xml:space="preserve">
<style type="text/css">
	.st0{fill:#FFFFFF;}
	.st1{fill:#D2374E;}
	.st2{fill:none;stroke:#D2374E;stroke-width:2;stroke-linecap:round;stroke-linejoin:round;}
	.st3{fill:none;stroke:#D2374E;stroke-width:2;stroke-linecap:round;stroke-linejoin:round;stroke-dasharray:3.4615,5.7692;}
	.st4{fill:none;stroke:#D2374E;stroke-width:2;stroke-linecap:round;stroke-linejoin:round;stroke-miterlimit:10;}
	.st5{fill:none;stroke:#D2374E;stroke-width:3.25;stroke-linecap:round;stroke-linejoin:round;}
	.st6{fill:none;stroke:#D2374E;stroke-width:3.25;stroke-linecap:round;stroke-linejoin:round;stroke-dasharray:3.9202,6.8604;}
	.st7{fill:none;stroke:#D2374E;stroke-width:3.25;stroke-linecap:round;stroke-linejoin:round;stroke-dasharray:3.966,6.9405;}
	.st8{fill:none;stroke:#D2374E;stroke-width:3.25;stroke-linecap:round;stroke-linejoin:round;stroke-dasharray:3.9324,6.8817;}
	.st9{fill:none;stroke:#D2374E;stroke-width:3.25;stroke-linecap:round;stroke-linejoin:round;stroke-dasharray:3.8866,6.8015;}
	.st10{fill:none;stroke:#D2374E;stroke-width:3.25;stroke-linecap:round;stroke-linejoin:round;stroke-dasharray:4.0693,7.1213;}
	.st11{fill:none;stroke:#D2374E;stroke-width:3.25;stroke-linecap:round;stroke-linejoin:round;stroke-dasharray:3.9356,6.8873;}
	.st12{fill:none;stroke:#D2374E;stroke-width:3.25;stroke-linecap:round;stroke-linejoin:round;stroke-dasharray:3.9532,6.918;}
	.st13{fill:none;stroke:#D2374E;stroke-width:3.25;stroke-linecap:round;stroke-linejoin:round;stroke-dasharray:4.0216,7.0378;}
	.st14{fill:none;stroke:#D2374E;stroke-width:3.25;stroke-linecap:round;stroke-linejoin:round;stroke-dasharray:3.9787,6.9628;}
	.st15{fill:none;stroke:#D2374E;stroke-width:3.25;stroke-linecap:round;stroke-linejoin:round;stroke-dasharray:4.0147,7.0257;}
	.st16{fill:none;stroke:#D2374E;stroke-width:3.25;stroke-linecap:round;stroke-linejoin:round;stroke-dasharray:3.9824,6.9692;}
	.st17{fill:none;stroke:#D2374E;stroke-width:3.25;stroke-linecap:round;stroke-linejoin:round;stroke-dasharray:4.0033,7.0057;}
	.st18{fill:none;stroke:#D2374E;stroke-width:3.25;stroke-linecap:round;stroke-linejoin:round;stroke-dasharray:4.0114,7.0199;}
	.st19{fill:none;stroke:#D2374E;stroke-width:3.25;stroke-linecap:round;stroke-linejoin:round;stroke-dasharray:4.006,7.0105;}
	.st20{fill:none;stroke:#D2374E;stroke-width:3.25;stroke-linecap:round;stroke-linejoin:round;stroke-dasharray:4.0036,7.0062;}
	.st21{fill:none;stroke:#D2374E;stroke-width:3.25;stroke-linecap:round;stroke-linejoin:round;stroke-dasharray:3.9928,6.9873;}
	.st22{fill:none;stroke:#D2374E;stroke-width:3.25;stroke-linecap:round;stroke-linejoin:round;stroke-dasharray:3.9426,6.8995;}
	.st23{fill:none;stroke:#D2374E;stroke-width:3.25;stroke-linecap:round;stroke-linejoin:round;stroke-dasharray:3.9159,6.8529;}
	.st24{fill:none;stroke:#D2374E;stroke-width:3;stroke-linecap:round;stroke-linejoin:round;}
	.st25{fill:none;stroke:#D2374E;stroke-width:3;stroke-linecap:round;stroke-linejoin:round;stroke-dasharray:3.8885,6.8048;}
	.st26{fill:none;stroke:#D2374E;stroke-width:3.25;stroke-linecap:round;stroke-linejoin:round;stroke-dasharray:3.972,6.951;}
	.st27{fill:none;stroke:#D2374E;stroke-width:3.25;stroke-linecap:round;stroke-linejoin:round;stroke-dasharray:4.0059,7.0103;}
	.st28{fill:none;stroke:#D2374E;stroke-width:3.25;stroke-linecap:round;stroke-linejoin:round;stroke-dasharray:3.9337,6.8839;}
	.st29{fill:none;stroke:#D2374E;stroke-width:3.25;stroke-linecap:round;stroke-linejoin:round;stroke-dasharray:4.0265,7.0464;}
	.st30{fill:none;stroke:#D2374E;stroke-width:3.25;stroke-linecap:round;stroke-linejoin:round;stroke-dasharray:4.0492,7.086;}
	.st31{fill:none;stroke:#D2374E;stroke-width:3;stroke-linecap:round;stroke-linejoin:round;stroke-dasharray:3.9001,6.8252;}
	.st32{fill:none;stroke:#D2374E;stroke-width:3.25;stroke-linecap:round;stroke-linejoin:round;stroke-dasharray:4.0711,7.1244;}
	.st33{fill:none;stroke:#D2374E;stroke-width:3;stroke-linecap:round;stroke-linejoin:round;stroke-dasharray:2.9922,5.9844;}
	.st34{fill:none;stroke:#D2374E;stroke-width:3;stroke-linecap:round;stroke-linejoin:round;stroke-dasharray:3.0069,6.0138;}
	.st35{fill:none;stroke:#D2374E;stroke-width:3;stroke-linecap:round;stroke-linejoin:round;stroke-dasharray:2.9983,5.9966;}
	.st36{fill:none;stroke:#D2374E;stroke-width:3;stroke-linecap:round;stroke-linejoin:round;stroke-dasharray:3.0164,6.0328;}
	.st37{fill:none;stroke:#D2374E;stroke-width:3;stroke-linecap:round;stroke-linejoin:round;stroke-dasharray:2.9189,5.8377;}
	.st38{fill:none;stroke:#D2374E;stroke-width:3;stroke-linecap:round;stroke-linejoin:round;stroke-dasharray:3.0842,6.1685;}
	.st39{fill:none;stroke:#D2374E;stroke-width:3;stroke-linecap:round;stroke-linejoin:round;stroke-dasharray:2.9838,5.9677;}
	.st40{fill:none;stroke:#D2374E;stroke-width:3;stroke-linecap:round;stroke-linejoin:round;stroke-dasharray:3.0354,6.0708;}
	.st41{fill:none;stroke:#D2374E;stroke-width:3;stroke-linecap:round;stroke-linejoin:round;stroke-dasharray:2.9005,5.8011;}
	.st42{fill:none;stroke:#D2374E;stroke-width:3;stroke-linecap:round;stroke-linejoin:round;stroke-dasharray:3.0242,6.0484;}
	.st43{fill:none;stroke:#D2374E;stroke-width:3;stroke-linecap:round;stroke-linejoin:round;stroke-dasharray:1.5418,3.0837;}
	.st44{fill:none;stroke:#D2374E;stroke-width:3;stroke-linecap:round;stroke-linejoin:round;stroke-dasharray:2.9874,5.9747;}
	.st45{fill:none;stroke:#D2374E;stroke-width:3;stroke-linecap:round;stroke-linejoin:round;stroke-dasharray:2.9448,5.8896;}
	.st46{fill:none;stroke:#D2374E;stroke-width:3;stroke-linecap:round;stroke-linejoin:round;stroke-dasharray:2.9896,5.9792;}
	.st47{fill:none;stroke:#D2374E;stroke-width:3;stroke-linecap:round;stroke-linejoin:round;stroke-dasharray:3.0419,6.0837;}
	.st48{fill:none;stroke:#D2374E;stroke-width:3;stroke-linecap:round;stroke-linejoin:round;stroke-dasharray:3.006,6.0121;}
	.st49{fill:none;stroke:#D2374E;stroke-width:3;stroke-linecap:round;stroke-linejoin:round;stroke-dasharray:3.0449,6.0898;}
	.st50{fill:none;stroke:#D2374E;stroke-width:3;stroke-linecap:round;stroke-linejoin:round;stroke-dasharray:2.9595,5.919;}
	.st51{fill:none;stroke:#D2374E;stroke-width:3;stroke-linecap:round;stroke-linejoin:round;stroke-dasharray:2.9864,5.9728;}
	.st52{fill:none;stroke:#D2374E;stroke-width:3;stroke-linecap:round;stroke-linejoin:round;stroke-dasharray:2.9907,5.9814;}
	.st53{fill:none;stroke:#D2374E;stroke-width:3;stroke-linecap:round;stroke-linejoin:round;stroke-dasharray:2.9777,5.9553;}
	.st54{fill:none;stroke:#D2374E;stroke-width:3;stroke-linecap:round;stroke-linejoin:round;stroke-dasharray:3.0721,6.1441;}
	.st55{fill:none;stroke:#D2374E;stroke-width:3;stroke-linecap:round;stroke-linejoin:round;stroke-dasharray:2.8882,5.7764;}
	.st56{fill:none;stroke:#D2374E;stroke-width:3;stroke-linecap:round;stroke-linejoin:round;stroke-dasharray:3.0721,6.1443;}
	.st57{fill:none;stroke:#D2374E;stroke-width:3;stroke-linecap:round;stroke-linejoin:round;stroke-dasharray:1.9159,3.8319;}
	.st58{fill:none;stroke:#D2374E;stroke-width:3;stroke-linecap:round;stroke-linejoin:round;stroke-dasharray:3.0471,6.0941;}
	.st59{fill:none;stroke:#D2374E;stroke-width:3;stroke-linecap:round;stroke-linejoin:round;stroke-dasharray:3.0196,6.0393;}
	.st60{fill:none;stroke:#D2374E;stroke-width:3;stroke-linecap:round;stroke-linejoin:round;stroke-dasharray:3.0608,6.1215;}
	.st61{fill:none;stroke:#D2374E;stroke-width:3;stroke-linecap:round;stroke-linejoin:round;stroke-dasharray:2.9826,5.9652;}
	.st62{fill:none;stroke:#D2374E;stroke-width:3;stroke-linecap:round;stroke-linejoin:round;stroke-dasharray:3.0253,6.0507;}
	.st63{fill:none;stroke:#D2374E;stroke-width:3;stroke-linecap:round;stroke-linejoin:round;stroke-dasharray:1.9503,3.9006;}
	.st64{fill:none;stroke:#D2374E;stroke-width:3;stroke-linecap:round;stroke-linejoin:round;stroke-dasharray:2.9468,5.8935;}
	.st65{fill:none;stroke:#D2374E;stroke-width:3;stroke-linecap:round;stroke-linejoin:round;stroke-dasharray:3.0622,6.1243;}
	.st66{fill:none;stroke:#D2374E;stroke-width:3;stroke-linecap:round;stroke-linejoin:round;stroke-dasharray:2.9721,5.9441;}
	.st67{fill:none;stroke:#D2374E;stroke-width:3;stroke-linecap:round;stroke-linejoin:round;stroke-dasharray:2.9981,5.9961;}
	.st68{fill:none;stroke:#D2374E;stroke-width:3;stroke-linecap:round;stroke-linejoin:round;stroke-dasharray:3.1232,6.2464;}
	.st69{fill:none;stroke:#D2374E;stroke-width:3;stroke-linecap:round;stroke-linejoin:round;stroke-dasharray:3.0217,6.0433;}
	.st70{fill:none;stroke:#D2374E;stroke-width:3;stroke-linecap:round;stroke-linejoin:round;stroke-dasharray:2.9974,5.9948;}
	.st71{fill:none;stroke:#D2374E;stroke-width:3;stroke-linecap:round;stroke-linejoin:round;stroke-dasharray:2.4663,4.9325;}
	.st72{fill:none;stroke:#D2374E;stroke-width:3;stroke-linecap:round;stroke-linejoin:round;stroke-dasharray:2.9637,5.9274;}
	.st73{fill:none;stroke:#D2374E;stroke-width:3;stroke-linecap:round;stroke-linejoin:round;stroke-dasharray:2.9517,5.9035;}
	.st74{fill:none;stroke:#D2374E;stroke-width:3;stroke-linecap:round;stroke-linejoin:round;stroke-dasharray:3.0066,6.0132;}
	.st75{fill:none;stroke:#D2374E;stroke-width:3;stroke-linecap:round;stroke-linejoin:round;stroke-dasharray:2.9417,5.8834;}
	.st76{fill:none;stroke:#D2374E;stroke-width:3;stroke-linecap:round;stroke-linejoin:round;stroke-dasharray:2.9696,5.9392;}
	.st77{fill:none;stroke:#D2374E;stroke-width:3;stroke-linecap:round;stroke-linejoin:round;stroke-dasharray:1.7668,3.5335;}
	.st78{fill:none;stroke:#D2374E;stroke-width:3;stroke-linecap:round;stroke-linejoin:round;stroke-dasharray:1.7839,3.5677;}
	.st79{fill:none;stroke:#D2374E;stroke-width:3;stroke-linecap:round;stroke-linejoin:round;stroke-dasharray:1.8663,3.7326;}
	.st80{fill:none;stroke:#D2374E;stroke-width:3;stroke-linecap:round;stroke-linejoin:round;stroke-dasharray:2.9914,5.9827;}
	.st81{fill:none;stroke:#D2374E;stroke-width:3;stroke-linecap:round;stroke-linejoin:round;stroke-dasharray:3.0027,6.0055;}
	.st82{fill:none;stroke:#D2374E;stroke-width:3;stroke-linecap:round;stroke-linejoin:round;stroke-dasharray:2.858,5.716;}
	.st83{fill:none;stroke:#D2374E;stroke-width:3;stroke-linecap:round;stroke-linejoin:round;stroke-dasharray:3.0107,6.0214;}
	.st84{fill:none;stroke:#D2374E;stroke-width:3;stroke-linecap:round;stroke-linejoin:round;stroke-dasharray:3.0405,6.0811;}
	.st85{fill:none;stroke:#D2374E;stroke-width:3;stroke-linecap:round;stroke-linejoin:round;stroke-dasharray:2.802,5.6041;}
	.st86{fill:none;stroke:#D2374E;stroke-width:3;stroke-linecap:round;stroke-linejoin:round;stroke-dasharray:3.0135,6.027;}
	.st87{fill:none;stroke:#D2374E;stroke-width:3;stroke-linecap:round;stroke-linejoin:round;stroke-dasharray:2.9567,5.9135;}
	.st88{fill:none;stroke:#D2374E;stroke-width:3;stroke-linecap:round;stroke-linejoin:round;stroke-dasharray:2.962,5.924;}
	.st89{fill:none;stroke:#D2374E;stroke-width:3;stroke-linecap:round;stroke-linejoin:round;stroke-dasharray:1.6535,3.307;}
	.st90{fill:none;stroke:#D2374E;stroke-width:3;stroke-linecap:round;stroke-linejoin:round;stroke-dasharray:1.6698,3.3396;}
	.st91{fill:none;stroke:#D2374E;stroke-width:3;stroke-linecap:round;stroke-linejoin:round;stroke-dasharray:1.7483,3.4966;}
	.st92{fill:none;stroke:#D2374E;stroke-width:3;stroke-linecap:round;stroke-linejoin:round;stroke-dasharray:2.9776,5.9551;}
	.st93{fill:none;stroke:#D2374E;stroke-width:3;stroke-linecap:round;stroke-linejoin:round;stroke-dasharray:2.9935,5.9871;}
	.st94{fill:none;stroke:#D2374E;stroke-width:3;stroke-linecap:round;stroke-linejoin:round;stroke-dasharray:2.5236,5.0472;}
	.st95{fill:none;stroke:#D2374E;stroke-width:3;stroke-linecap:round;stroke-linejoin:round;stroke-dasharray:3.0201,6.0403;}
	.st96{fill:none;stroke:#D2374E;stroke-width:3;stroke-linecap:round;stroke-linejoin:round;stroke-dasharray:3.0181,6.0363;}
	.st97{fill:none;stroke:#D2374E;stroke-width:3;stroke-linecap:round;stroke-linejoin:round;stroke-dasharray:1.5537,3.1073;}
	.st98{fill:none;stroke:#D2374E;stroke-width:3;stroke-linecap:round;stroke-linejoin:round;stroke-dasharray:2.9946,5.9893;}
	.st99{fill:none;stroke:#D2374E;stroke-width:3;stroke-linecap:round;stroke-linejoin:round;stroke-dasharray:3.0643,6.1286;}
	.st100{fill:none;stroke:#D2374E;stroke-width:3;stroke-linecap:round;stroke-linejoin:round;stroke-dasharray:3.0262,6.0524;}
	.st101{fill:none;stroke:#D2374E;stroke-width:3;stroke-linecap:round;stroke-linejoin:round;stroke-dasharray:3.0331,6.0662;}
	.st102{fill:none;stroke:#D2374E;stroke-width:2.75;stroke-linecap:round;stroke-linejoin:round;stroke-miterlimit:10;}
	.st103{fill:none;stroke:#D2374E;stroke-width:2.5;stroke-linecap:round;stroke-linejoin:round;stroke-miterlimit:10;}
	.st104{fill:none;stroke:#D2374E;stroke-width:3.5;stroke-linecap:round;stroke-linejoin:round;stroke-miterlimit:10;}
	.st105{fill:none;stroke:#D2374E;stroke-width:3;stroke-linecap:round;stroke-linejoin:round;stroke-miterlimit:10;}
</style>
<metadata>
	<sfw  xmlns="&ns_sfw;">
		<slices></slices>
		<sliceSourceBounds  bottomLeftOrigin="true" height="8225.674" width="4394" x="-2000" y="686"></sliceSourceBounds>
	</sfw>
</metadata>
<g id="FILL-BACKGROUND">
	<rect class="st0" width="750" height="750"/>
</g>
<g id="N-DIMENSIONS">
</g>
<g id="N-TEXT">
</g>
<g id="_x32_D_x24_AG-DIAGRAM">
	<g id="POLYLINE_00000078743462539247631870000015369076230057218447_">
		<g>
			<g>
				<line class="st5" x1="282.973" y1="647.601" x2="284.973" y2="647.601"/>
				<line class="st11" x1="291.86" y1="647.601" x2="461.584" y2="647.601"/>
				<line class="st5" x1="465.027" y1="647.601" x2="467.027" y2="647.601"/>
			</g>
		</g>
	</g>
</g>
<g id="_x32_D_x24_AG-DETAILS-DIAGRAM">
</g>
<g id="_x32_D_x24_AG-DETAILS">
	<g id="POLYLINE_00000149368790248483284540000006127516490768175542_">
		<path class="st4" d="M298.156,380.755c38.592,0,116.252,0,154.835,0"/>
	</g>
	<g id="POLYLINE_00000152948354024042258040000003575007545423451564_">
		<path class="st4" d="M452.99,385.905c-38.592,0-116.252,0-154.835,0"/>
	</g>
	<g id="POLYLINE_00000007422231772030280740000005390338934028918165_">
		<path class="st4" d="M298.156,352.432c38.592,0,116.252,0,154.835,0"/>
	</g>
	<g id="POLYLINE_00000039846719341044057410000016119758503918074036_">
		<path class="st4" d="M452.99,357.582c-38.592,0-116.252,0-154.835,0"/>
	</g>
	<g id="POLYLINE_00000097473989341193199170000015883482901981101715_">
		<path class="st4" d="M298.156,324.109c38.592,0,116.252,0,154.835,0"/>
	</g>
	<g id="POLYLINE_00000010301782564485652030000009243185832228848553_">
		<path class="st4" d="M452.99,329.259c-38.592,0-116.252,0-154.835,0"/>
	</g>
	<g id="POLYLINE_00000051364308008584469600000002702449824752898967_">
		<path class="st4" d="M298.156,295.786c38.592,0,116.252,0,154.835,0"/>
	</g>
	<g id="POLYLINE_00000026845507690231279350000006112406061688929443_">
		<path class="st4" d="M452.99,300.936c-38.592,0-116.252,0-154.835,0"/>
	</g>
	<g id="POLYLINE_00000161610951605767864240000000717016833691765650_">
		<path class="st4" d="M298.156,267.463c38.592,0,116.252,0,154.835,0"/>
	</g>
	<g id="POLYLINE_00000088118778232529146540000012017076557246064061_">
		<path class="st4" d="M452.99,272.613c-38.592,0-116.252,0-154.835,0"/>
	</g>
	<g id="POLYLINE_00000026841741853773182210000006227639098211779759_">
		<path class="st4" d="M308.135,455.257c33.617,0,101.267,0,134.876,0"/>
	</g>
	<g id="POLYLINE_00000108279765164175794710000003563774413542914443_">
		<path class="st4" d="M443.046,460.406c-33.635,0-101.319,0-134.945,0"/>
	</g>
	<g id="POLYLINE_00000165193227857373560850000014324196045675471502_">
		<path class="st4" d="M449.274,496.454c-36.74,0-110.672,0-147.403,0"/>
	</g>
	<g id="POLYLINE_00000008110681207047553860000004399711628772297091_">
		<path class="st4" d="M301.987,491.304c36.682,0,110.499,0,147.172,0"/>
	</g>
	<g id="POLYLINE_00000047061605878581503780000005581796405599324095_">
		<path class="st4" d="M452.69,589.147c-38.442,0-115.801,0-154.233,0"/>
	</g>
	<g id="POLYLINE_00000009563588129676774780000016337068486492188073_">
		<path class="st4" d="M298.455,583.997c38.443,0,115.803,0,154.237,0"/>
	</g>
	<g id="POLYLINE_00000126315204801588812040000015679348639399533475_">
		<path class="st4" d="M452.534,560.824c-38.365,0-115.567,0-153.922,0"/>
	</g>
	<g id="POLYLINE_00000008113862098395556120000000440107272342311050_">
		<path class="st4" d="M298.468,555.674c38.437,0,115.784,0,154.211,0"/>
	</g>
	<g id="POLYLINE_00000111897707936487193690000015503990188473396409_">
		<path class="st4" d="M452.683,532.501c-38.439,0-115.791,0-154.221,0"/>
	</g>
	<g id="POLYLINE_00000016056080656551430580000017444556643623935880_">
		<path class="st4" d="M298.545,527.351c38.398,0,115.668,0,154.057,0"/>
	</g>
</g>
<g id="_x32_D_x24_AG-OBJECTS">
	<g id="POLYLINE_00000023270065466454616230000016429320977036183468_">
		<path class="st102" d="M411.62,144.997c0,0,0-15.449,0-15.449c-0.004-0.112-0.002-0.244-0.012-0.355
			c-0.019-0.263-0.058-0.534-0.117-0.791c-0.229-1.011-0.774-1.949-1.54-2.649c-0.938-0.865-2.205-1.359-3.481-1.355
			c-0.089,0.001-61.802-0.001-61.884,0.001c-0.172,0.003-0.361,0.016-0.532,0.037c-0.291,0.035-0.588,0.098-0.869,0.183
			c-0.737,0.222-1.425,0.614-1.991,1.134c-0.765,0.7-1.311,1.638-1.54,2.649c-0.065,0.286-0.107,0.586-0.122,0.879
			c0.003,0.078-0.012,0.188-0.007,0.267c0,0,0,15.449,0,15.449"/>
	</g>
	<g id="POLYLINE_00000125580677032394378370000001869781431346939313_">
		<path class="st102" d="M341.457,151.434c-0.481-0.001-0.959,0.185-1.311,0.514c-0.354,0.326-0.577,0.786-0.614,1.266
			c-0.044,0.531,0.145,1.073,0.508,1.463c0.285,0.31,0.674,0.52,1.088,0.591c0.479,0.086,1.537-0.035,2.013,0.069
			c0.291,0.061,0.568,0.19,0.801,0.375c0.388,0.306,0.65,0.763,0.716,1.253c0.009,0.075,0.016,0.144,0.017,0.219
			c0.016-0.01-0.01,7.109,0,7.116c-0.004,0.469-0.015,0.945-0.053,1.408c-0.095,1.219-0.325,2.437-0.75,3.586
			c-0.281,0.763-0.651,1.497-1.108,2.17c-0.187,0.277-0.394,0.545-0.608,0.8c-2.009,2.331-6.432,7.309-8.3,9.568
			c-14.586,17.387-34.372,43.015-39.09,65.35c-0.418,2.028-0.724,4.12-0.861,6.187c-0.051,0.788-0.083,1.662-0.083,2.451
			c0,0.048,0,6.498,0,6.542c0.001,0.129,0.007,0.262,0.018,0.391c0.05,0.589,0.203,1.171,0.45,1.708
			c0.394,0.862,1.032,1.611,1.821,2.136c0.363,0.243,0.759,0.439,1.171,0.582c0.206,0.077,0.424,0.122,0.634,0.183
			c0.494,0.159,0.888,0.584,1.009,1.088c0.03,0.121,0.045,0.246,0.045,0.37c0,0,0,2.435,0,2.435c0.001,0.028-0.002,0.053-0.002,0.08
			c-0.005,0.097-0.02,0.196-0.043,0.29c-0.109,0.451-0.436,0.842-0.86,1.03c-0.184,0.085-0.389,0.115-0.582,0.176
			c-0.327,0.099-0.646,0.231-0.946,0.392c-0.788,0.421-1.463,1.053-1.935,1.812c-0.474,0.758-0.745,1.641-0.778,2.534
			c-0.001,0.062-0.005,0.131-0.004,0.193c0,0.048,0,12.878,0,12.922c0.002,0.162,0.011,0.329,0.028,0.49
			c0.06,0.573,0.218,1.137,0.464,1.658c0.504,1.076,1.393,1.964,2.469,2.466c0.447,0.211,0.71,0.269,1.159,0.395
			c0.294,0.102,0.556,0.297,0.738,0.55c0.141,0.194,0.235,0.423,0.272,0.661c0.038,0.162,0.012,2.526,0.018,2.728
			c-0.013,0.41-0.199,0.811-0.504,1.085c-0.158,0.143-0.347,0.254-0.55,0.32c-0.28,0.077-0.566,0.147-0.835,0.258
			c-1.156,0.452-2.134,1.34-2.696,2.447c-0.28,0.547-0.461,1.146-0.53,1.756c-0.02,0.177-0.032,0.361-0.033,0.539
			c-0.016,0.059,0.011,12.863,0,12.922c0.002,0.038-0.001,0.105,0.002,0.145c0.033,1.378,0.651,2.728,1.672,3.655
			c0.515,0.471,1.128,0.837,1.787,1.065c0.148,0.051,0.303,0.098,0.455,0.135c0.165,0.035,0.326,0.095,0.471,0.18
			c0.466,0.266,0.767,0.791,0.763,1.327c0,0,0,2.435,0,2.435c0.001,0.03-0.002,0.076-0.004,0.107
			c-0.012,0.177-0.056,0.354-0.128,0.516c-0.144,0.326-0.405,0.599-0.725,0.755c-0.134,0.069-0.282,0.108-0.427,0.142
			c-0.152,0.038-0.307,0.087-0.455,0.14c-0.782,0.28-1.494,0.753-2.055,1.365c-0.556,0.605-0.964,1.346-1.178,2.14
			c-0.118,0.436-0.178,0.89-0.178,1.342c0,0,0,12.874,0,12.874s0,0.048,0,0.048s0.001,0.048,0.001,0.048l0.001,0.048
			c0.008,0.282,0.039,0.567,0.094,0.844c0.141,0.724,0.441,1.417,0.871,2.016c0.561,0.784,1.349,1.404,2.242,1.766
			c0.212,0.086,0.434,0.16,0.656,0.217c0.243,0.05,0.48,0.144,0.677,0.296c0.379,0.283,0.61,0.751,0.607,1.223c0,0,0,2.435,0,2.435
			s0,0.027,0,0.027l-0.001,0.027l-0.001,0.027c-0.003,0.059-0.011,0.127-0.021,0.186c-0.034,0.192-0.105,0.38-0.209,0.546
			c-0.155,0.249-0.383,0.453-0.649,0.578c-0.19,0.094-0.405,0.123-0.606,0.187c-0.327,0.098-0.646,0.231-0.946,0.392
			c-1.285,0.681-2.247,1.932-2.577,3.348c-0.089,0.373-0.136,0.759-0.139,1.142c-0.001,0.044,0,12.874,0,12.922c0,0,0,0.048,0,0.048
			s0.001,0.048,0.001,0.048c0.004,0.212,0.022,0.43,0.052,0.641c0.081,0.558,0.254,1.104,0.511,1.606
			c0.472,0.928,1.234,1.705,2.153,2.195c0.316,0.169,0.652,0.307,0.997,0.407c0.159,0.044,0.328,0.079,0.482,0.14
			c0.422,0.169,0.757,0.539,0.888,0.974c0.039,0.126,0.061,0.262,0.066,0.394c0,0,0.001,0.027,0.001,0.027s0,0.027,0,0.027
			s0,2.435,0,2.435c0.001,0.329-0.109,0.659-0.307,0.921c-0.192,0.256-0.467,0.451-0.773,0.545c-0.74,0.172-1.45,0.486-2.052,0.953
			c-0.779,0.595-1.381,1.418-1.712,2.341c-0.157,0.436-0.256,0.896-0.291,1.358c-0.035,0.797-0.009,1.7,0.008,2.498
			c0.188,6.041,1.512,12.045,3.045,17.872c3.552,12.756,7.649,26.462,8.608,39.676c0.052,0.589,0.069,1.453,0.136,2.036
			c0.044,0.294,0.127,0.583,0.253,0.853c0.286,0.627,0.827,1.119,1.465,1.374c0.269,0.119,0.533,0.144,0.78,0.282
			c0.335,0.181,0.597,0.492,0.719,0.853c0.043,0.125,0.069,0.258,0.078,0.389c0.002,0.016,0.008,2.585,0.002,2.622
			c-0.014,0.284-0.11,0.564-0.273,0.798c-0.167,0.241-0.406,0.433-0.678,0.543c-0.171,0.071-0.359,0.098-0.534,0.158
			c-0.276,0.089-0.544,0.21-0.791,0.363c-1.193,0.733-1.709,2.152-1.897,3.479c-0.129,1.091-4.238,21.793-4.515,23.505
			c-0.055,0.434-0.077,0.878-0.025,1.313c0.044,0.361,0.142,0.722,0.331,1.036c0.197,0.331,0.503,0.592,0.856,0.746
			c0.179,0.082,0.378,0.121,0.548,0.223c0.24,0.135,0.442,0.336,0.579,0.575c0.124,0.215,0.194,0.462,0.202,0.71
			c0,0.014,0.001,0.04,0.001,0.053c0,0,0,2.449,0,2.449c0,0.023-0.001,0.057-0.002,0.08c-0.006,0.115-0.025,0.232-0.057,0.343
			c-0.13,0.466-0.494,0.857-0.95,1.02c-0.168,0.061-0.349,0.085-0.519,0.137c-0.269,0.077-0.534,0.18-0.782,0.31
			c-0.599,0.309-1.105,0.783-1.477,1.343c-0.355,0.529-0.602,1.13-0.776,1.741c-0.094,0.333-0.17,0.683-0.227,1.024
			c-1.028,6.358-2.071,13.611-2.725,20.014c-0.096,1.206-0.093,2.453,0.272,3.617c0.249,0.796,0.722,1.545,1.43,2.005
			c0.31,0.205,0.656,0.356,1.013,0.457c0.236,0.065,0.47,0.098,0.685,0.226c0.43,0.237,0.729,0.691,0.777,1.18
			c0.01,0.074,0.029,2.784-0.02,2.805c-0.055,0.288-0.196,0.56-0.4,0.771c-0.172,0.18-0.389,0.317-0.626,0.395
			c-0.112,0.039-0.235,0.058-0.352,0.078c-0.132,0.024-0.271,0.055-0.401,0.088c-0.82,0.205-1.599,0.62-2.17,1.251
			c-0.965,1.057-1.281,2.533-1.346,3.925c-0.086,3.143-0.252,8.689-0.217,11.823c0.022,0.483,0.07,0.98,0.154,1.456
			c0.177,1.001,0.524,2,1.171,2.798c0.446,0.555,1.038,0.989,1.695,1.263c0.292,0.123,0.599,0.217,0.908,0.286
			c0.167,0.042,0.345,0.057,0.511,0.106c0.471,0.136,0.863,0.511,1.018,0.976c0.055,0.159,0.083,0.329,0.083,0.497
			c0,0,0,2.39,0,2.39c0,0.035-0.001,0.072-0.004,0.107c-0.009,0.124-0.033,0.248-0.071,0.366c-0.122,0.382-0.4,0.71-0.756,0.892
			c-0.266,0.143-0.578,0.165-0.864,0.249c-0.853,0.227-1.675,0.626-2.314,1.243c-0.611,0.583-1.031,1.345-1.268,2.152
			c-0.226,0.761-0.306,1.565-0.307,2.357c0,0,0,10.823,0,10.823c0,0.268,0.009,0.57,0.026,0.837
			c0.042,0.638,0.136,1.284,0.313,1.899c0.255,0.897,0.714,1.756,1.421,2.376c0.684,0.61,1.565,0.96,2.462,1.109
			c0.648,0.076,1.195,0.567,1.327,1.209c0.072,0.259,0.017,2.335,0.034,2.629c0,0.169-0.028,0.339-0.083,0.499
			c-0.174,0.519-0.643,0.921-1.182,1.013c-0.665,0.105-1.323,0.309-1.904,0.655c-0.55,0.325-1.022,0.78-1.374,1.313
			c-0.503,0.757-0.774,1.646-0.913,2.538c-0.073,0.468-0.111,0.959-0.123,1.432c-0.001,0.077-0.005,0.265-0.004,0.345
			c0,0,0.039,14.639,0.039,14.639c0.118,5.939,0.327,12.054,2.231,17.731c1.986,5.851,5.675,11.205,10.696,14.85
			c1.687,1.206,3.533,2.236,5.51,2.879c1.865,0.606,3.841,0.904,5.785,1.122c4.769,0.507,10.174,0.588,14.982,0.698
			c21.19,0.152,63.831,0.152,85.016,0c4.82-0.113,10.206-0.19,14.982-0.698c1.945-0.218,3.92-0.516,5.785-1.122
			c1.977-0.642,3.823-1.673,5.51-2.879c5.021-3.645,8.71-8.999,10.696-14.85c1.904-5.677,2.113-11.793,2.231-17.731
			c0,0,0.039-14.639,0.039-14.639c-0.002-0.097-0.001-0.251-0.004-0.345c-0.012-0.474-0.05-0.963-0.123-1.432
			c-0.142-0.911-0.422-1.821-0.946-2.588c-0.348-0.512-0.808-0.948-1.341-1.263c-0.581-0.346-1.238-0.551-1.904-0.655
			c-0.539-0.092-1.009-0.494-1.182-1.013c-0.055-0.16-0.083-0.33-0.083-0.499c0.016-0.28-0.04-2.46,0.039-2.655
			c0.083-0.366,0.307-0.698,0.615-0.912c0.227-0.164,0.498-0.245,0.773-0.282c0.892-0.157,1.766-0.519,2.439-1.136
			c0.683-0.618,1.128-1.46,1.378-2.338c0.178-0.615,0.271-1.261,0.313-1.899c0.017-0.268,0.026-0.568,0.026-0.837
			c0,0,0-10.823,0-10.823c-0.001-0.792-0.081-1.596-0.307-2.357c-0.241-0.825-0.676-1.603-1.309-2.191
			c-0.633-0.595-1.438-0.982-2.272-1.204c-0.294-0.086-0.616-0.109-0.888-0.262c-0.345-0.185-0.614-0.507-0.733-0.88
			c-0.038-0.118-0.062-0.242-0.071-0.366c-0.002-0.032-0.004-0.074-0.004-0.107c0,0,0-2.39,0-2.39c0-0.168,0.028-0.338,0.083-0.497
			c0.156-0.465,0.547-0.84,1.018-0.976c0.165-0.049,0.344-0.064,0.511-0.106c0.309-0.069,0.616-0.164,0.908-0.286
			c0.657-0.273,1.248-0.708,1.695-1.263c0.647-0.797,0.993-1.797,1.171-2.798c0.094-0.533,0.144-1.09,0.161-1.631
			c0.013-3.036-0.132-8.613-0.224-11.649c-0.064-1.359-0.364-2.795-1.278-3.849c-0.564-0.657-1.35-1.096-2.182-1.313
			c-0.149-0.04-0.306-0.074-0.457-0.102c-0.108-0.02-0.222-0.035-0.326-0.07c-0.195-0.061-0.379-0.161-0.535-0.293
			c-0.342-0.286-0.546-0.727-0.544-1.173c0,0,0-2.353,0-2.353c0-0.023,0.001-0.057,0.002-0.08c0.005-0.097,0.02-0.196,0.043-0.29
			c0.075-0.302,0.244-0.581,0.479-0.786c0.187-0.164,0.416-0.282,0.658-0.339c0.618-0.13,1.216-0.399,1.685-0.827
			c0.563-0.507,0.916-1.207,1.112-1.93c0.297-1.101,0.296-2.264,0.206-3.394c-0.655-6.402-1.697-13.656-2.725-20.014
			c-0.057-0.341-0.133-0.692-0.227-1.024c-0.174-0.612-0.42-1.212-0.776-1.741c-0.38-0.572-0.901-1.054-1.516-1.363
			c-0.251-0.127-0.517-0.228-0.787-0.302c-0.165-0.048-0.34-0.071-0.5-0.134c-0.444-0.168-0.797-0.553-0.925-1.01
			c-0.032-0.111-0.051-0.227-0.057-0.343c-0.001-0.024-0.002-0.057-0.002-0.08c0,0,0-2.449,0-2.449c0-0.023,0.001-0.057,0.002-0.08
			c0.012-0.239,0.082-0.476,0.201-0.684c0.136-0.239,0.339-0.44,0.579-0.575c0.171-0.102,0.369-0.141,0.548-0.223
			c0.352-0.154,0.659-0.415,0.856-0.746c0.195-0.323,0.294-0.697,0.335-1.071c0.046-0.423,0.024-0.856-0.029-1.278
			c-0.278-1.725-4.383-22.388-4.515-23.505c-0.187-1.327-0.703-2.746-1.897-3.479c-0.246-0.154-0.514-0.275-0.791-0.363
			c-0.175-0.06-0.363-0.087-0.534-0.158c-0.28-0.114-0.525-0.314-0.693-0.565c-0.159-0.236-0.25-0.518-0.26-0.802
			c0-0.014-0.002-0.04-0.001-0.053c0,0,0-2.436,0-2.436c0-0.033,0.001-0.073,0.004-0.106c0.009-0.132,0.036-0.264,0.078-0.389
			c0.122-0.361,0.384-0.672,0.719-0.853c0.246-0.138,0.511-0.163,0.78-0.282c0.637-0.255,1.178-0.747,1.465-1.374
			c0.126-0.269,0.209-0.559,0.253-0.853c0.067-0.581,0.085-1.451,0.136-2.036c0.956-13.197,5.062-26.944,8.608-39.676
			c1.743-6.682,3.279-13.628,3.034-20.569c-0.099-0.868-0.424-1.708-0.934-2.417c-0.434-0.606-1.003-1.115-1.653-1.481
			c-0.444-0.254-0.928-0.43-1.424-0.547c-0.273-0.08-0.524-0.237-0.714-0.45c-0.172-0.192-0.295-0.429-0.353-0.68
			c-0.008-0.032-0.015-0.072-0.02-0.105c-0.011-0.072-0.017-0.141-0.019-0.213c0.002,0.01-0.002-2.46,0-2.462
			c-0.002-0.42,0.178-0.834,0.485-1.12c0.194-0.183,0.438-0.313,0.698-0.375c0.542-0.128,1.064-0.345,1.537-0.639
			c0.728-0.452,1.34-1.09,1.761-1.836c0.322-0.569,0.535-1.201,0.622-1.85c0.026-0.196,0.042-0.394,0.045-0.591
			c0.012-0.048-0.007-12.903,0.001-12.97c0.001-0.995-0.295-1.988-0.841-2.82c-0.597-0.916-1.493-1.63-2.519-2.008
			c-0.148-0.056-0.303-0.103-0.455-0.145c-0.153-0.043-0.311-0.071-0.454-0.144c-0.306-0.144-0.562-0.392-0.715-0.694
			c-0.093-0.183-0.148-0.384-0.163-0.588c0.004-0.372-0.03-2.513,0.019-2.808c0.089-0.531,0.476-0.992,0.981-1.175
			c0.156-0.054,0.325-0.086,0.483-0.135c0.291-0.088,0.578-0.203,0.849-0.341c0.73-0.371,1.37-0.92,1.847-1.585
			c0.461-0.64,0.771-1.389,0.899-2.167c0.037-0.229,0.06-0.461,0.066-0.693c0.002-0.038,0.001-0.105,0.002-0.145
			c0,0,0-12.874,0-12.874c0.004-1.258-0.475-2.507-1.318-3.44c-0.543-0.606-1.232-1.079-1.992-1.369
			c-0.18-0.069-0.369-0.129-0.556-0.177c-0.164-0.039-0.327-0.084-0.475-0.167c-0.483-0.255-0.804-0.78-0.809-1.327
			c0.005,0.008-0.004-2.459,0-2.462c0.001-0.021,0-0.059,0.002-0.08c0.005-0.097,0.02-0.196,0.043-0.29
			c0.081-0.329,0.275-0.628,0.541-0.837c0.188-0.15,0.413-0.25,0.647-0.3c0.222-0.055,0.444-0.125,0.656-0.209
			c0.792-0.312,1.505-0.825,2.052-1.477c0.481-0.571,0.835-1.25,1.03-1.971c0.092-0.343,0.15-0.697,0.17-1.052
			c0.005-0.095,0.009-0.196,0.008-0.291c0,0,0-12.874,0-12.874c-0.005-0.028,0.003-0.069-0.001-0.096
			c-0.008-0.437-0.073-0.876-0.191-1.297c-0.262-0.937-0.797-1.796-1.523-2.444c-0.506-0.453-1.104-0.805-1.745-1.028
			c-0.131-0.046-0.27-0.087-0.405-0.122c-0.164-0.037-0.327-0.085-0.475-0.167c-0.314-0.168-0.566-0.449-0.698-0.78
			c-0.073-0.181-0.111-0.378-0.111-0.573c0,0,0-2.435,0-2.435c-0.001-0.024,0.002-0.056,0.002-0.08
			c0.006-0.115,0.025-0.231,0.057-0.342c0.104-0.369,0.353-0.694,0.681-0.892c0.235-0.15,0.487-0.185,0.747-0.263
			c1.648-0.487,2.984-1.834,3.456-3.487c0.132-0.452,0.202-0.924,0.206-1.396c0.026-0.056-0.018-12.866,0-12.922
			c-0.001-0.076-0.002-0.165-0.006-0.242c-0.013-0.267-0.046-0.535-0.1-0.797c-0.321-1.606-1.453-3.012-2.954-3.668
			c-0.243-0.108-0.498-0.198-0.755-0.267c-0.18-0.043-0.363-0.089-0.525-0.18c-0.492-0.258-0.814-0.798-0.809-1.353
			c0,0,0-2.435,0-2.435l0-0.027l0.001-0.027c0.003-0.097,0.016-0.197,0.038-0.291c0.063-0.278,0.207-0.537,0.408-0.739
			c0.157-0.158,0.349-0.281,0.557-0.358c0.282-0.092,0.471-0.116,0.785-0.237c1.234-0.452,2.276-1.399,2.845-2.584
			c0.252-0.52,0.416-1.084,0.482-1.658c0.022-0.193,0.034-0.393,0.034-0.587c-0.031-1.931,0.083-7.545-0.119-9.444
			c-1.728-20.886-19.629-45.715-32.441-61.932c-4.877-6.183-10.818-13.024-16.012-18.965c-0.549-0.701-0.997-1.487-1.335-2.31
			c-0.655-1.592-0.915-3.327-0.944-5.042c0,0-0.003-0.32-0.003-0.32v-7.074c0-0.163,0.021-0.328,0.062-0.486
			c0.112-0.435,0.383-0.829,0.751-1.088c0.12-0.084,0.249-0.157,0.385-0.212c0.165-0.067,0.339-0.113,0.515-0.132
			c0.341-0.039,1.429,0.017,1.767-0.03c0.39-0.052,0.761-0.229,1.049-0.496c0.365-0.334,0.591-0.816,0.617-1.31
			c0.037-0.591-0.22-1.193-0.673-1.575c-0.198-0.169-0.431-0.299-0.679-0.376c-0.151-0.047-0.31-0.077-0.469-0.085
			c-0.099-0.009-34.116,0-34.224-0.003h36.047v-6.437c-17.969,0-54.13,0-72.095,0v6.437h36.047H341.457z"/>
	</g>
</g>
<g id="_x32_D_x24_AG-OUTLINE">
	<g id="POLYLINE_00000142897842894415515710000017282106547894940586_">
		<path class="st104" d="M350.358,647.591c-9.49-0.185-24.344,0.144-33.602-1.01c-1.723-0.238-3.462-0.576-5.096-1.182
			c-4.008-1.528-7.428-4.358-10.13-7.65c-2.672-3.28-4.679-7.11-5.849-11.176c-1.522-5.3-1.712-10.931-1.819-16.412l-0.039-14.639
			c0.001-0.158,0.003-0.357,0.009-0.513c0.02-0.517,0.071-1.047,0.168-1.555c0.168-0.887,0.482-1.765,1.034-2.487
			c0.482-0.639,1.154-1.125,1.9-1.41c0.316-0.123,0.648-0.214,0.98-0.278c0.151-0.032,0.311-0.045,0.456-0.1
			c0.407-0.139,0.748-0.457,0.914-0.854c0.066-0.156,0.106-0.325,0.118-0.494c-0.004-0.282,0.031-2.451-0.022-2.692
			c-0.079-0.44-0.36-0.837-0.749-1.057c-0.179-0.104-0.381-0.166-0.586-0.194c-0.213-0.036-0.431-0.084-0.639-0.143
			c-0.667-0.186-1.304-0.505-1.823-0.967c-0.506-0.446-0.892-1.018-1.157-1.635c-0.38-0.882-0.536-1.848-0.586-2.802
			c-0.033-0.408-0.015-11.262-0.013-11.805c0.015-0.516,0.067-1.042,0.175-1.547c0.192-0.916,0.587-1.808,1.236-2.493
			c0.627-0.673,1.467-1.118,2.345-1.369c0.2-0.059,0.414-0.107,0.618-0.15c0.104-0.023,0.206-0.057,0.303-0.101
			c0.378-0.17,0.68-0.5,0.816-0.892c0.044-0.125,0.071-0.257,0.081-0.388c0.003-0.037,0.005-0.081,0.005-0.118c0,0,0-2.39,0-2.39
			c0-0.198-0.039-0.398-0.114-0.581c-0.146-0.359-0.433-0.658-0.786-0.817c-0.162-0.077-0.34-0.111-0.516-0.14
			c-0.212-0.04-0.428-0.093-0.634-0.156c-0.745-0.226-1.44-0.635-1.969-1.209c-0.735-0.787-1.136-1.828-1.337-2.873
			c-0.102-0.524-0.158-1.072-0.182-1.606c-0.034-3.121,0.13-8.702,0.217-11.823c0.066-1.473,0.425-3.053,1.525-4.108
			c0.591-0.573,1.362-0.932,2.16-1.108c0.223-0.054,0.459-0.068,0.673-0.158c0.201-0.081,0.385-0.204,0.535-0.361
			c0.236-0.245,0.387-0.57,0.421-0.908c0.01-0.253,0.024-2.498-0.009-2.735c-0.036-0.244-0.132-0.479-0.277-0.678
			c-0.165-0.227-0.394-0.408-0.653-0.515c-0.2-0.084-0.42-0.108-0.625-0.178c-0.398-0.124-0.78-0.313-1.109-0.569
			c-0.635-0.487-1.045-1.214-1.266-1.974c-0.33-1.133-0.331-2.339-0.238-3.507c0.655-6.402,1.697-13.656,2.725-20.014
			c0.063-0.378,0.148-0.763,0.258-1.13c0.185-0.618,0.447-1.222,0.823-1.748c0.412-0.583,0.979-1.058,1.635-1.343
			c0.218-0.096,0.448-0.174,0.679-0.233c0.172-0.042,0.35-0.074,0.51-0.153c0.367-0.17,0.66-0.491,0.795-0.872
			c0.046-0.127,0.074-0.261,0.085-0.395c0.003-0.04,0.005-0.085,0.005-0.124c0,0,0-2.449,0-2.449c0-0.235-0.055-0.47-0.159-0.68
			c-0.172-0.352-0.485-0.632-0.854-0.764c-0.451-0.132-0.869-0.392-1.128-0.792c-0.212-0.319-0.323-0.695-0.372-1.073
			c-0.057-0.446-0.035-0.902,0.021-1.347c0.278-1.725,4.383-22.388,4.515-23.505c0.188-1.338,0.714-2.773,1.928-3.499
			c0.249-0.151,0.518-0.27,0.796-0.356c0.168-0.055,0.346-0.081,0.509-0.152c0.25-0.105,0.471-0.277,0.634-0.494
			c0.169-0.224,0.274-0.496,0.301-0.775c0.003-0.031,0.005-0.068,0.006-0.098c0-0.013,0.001-0.036,0.001-0.049c0,0,0-2.436,0-2.436
			c-0.001-0.011,0-0.036-0.001-0.048c-0.003-0.106-0.018-0.214-0.043-0.317c-0.101-0.422-0.391-0.794-0.776-0.995
			c-0.239-0.129-0.493-0.154-0.761-0.272c-0.584-0.235-1.091-0.666-1.389-1.223c-0.136-0.25-0.233-0.522-0.292-0.801
			c-0.086-0.365-0.09-1.019-0.117-1.395c-0.842-13.506-5.043-27.505-8.664-40.519c-1.574-5.986-2.927-12.145-3.058-18.353
			c-0.002-0.676-0.036-1.445,0.013-2.117c0.042-0.447,0.144-0.889,0.301-1.309c0.341-0.92,0.952-1.737,1.738-2.324
			c0.395-0.296,0.835-0.536,1.298-0.707c0.234-0.093,0.48-0.148,0.722-0.215c0.63-0.197,1.073-0.804,1.068-1.463
			c0,0,0-2.435,0-2.435c0-0.051-0.003-0.096-0.007-0.145c-0.012-0.126-0.04-0.251-0.082-0.371c-0.137-0.391-0.44-0.717-0.818-0.885
			c-0.167-0.077-0.353-0.108-0.529-0.16c-0.344-0.1-0.681-0.237-0.997-0.407c-0.886-0.473-1.627-1.213-2.102-2.098
			c-0.269-0.499-0.454-1.044-0.546-1.603c-0.037-0.229-0.06-0.461-0.066-0.693c-0.002-0.04-0.002-0.104-0.002-0.145
			c0,0,0-12.874,0-12.874c0-0.365,0.039-0.732,0.117-1.089c0.305-1.44,1.259-2.72,2.552-3.423c0.315-0.174,0.651-0.314,0.995-0.418
			c0.184-0.062,0.38-0.085,0.557-0.165c0.396-0.169,0.713-0.511,0.849-0.92c0.043-0.128,0.069-0.261,0.078-0.395
			c0.001-0.022,0.003-0.051,0.003-0.073c-0.003,0.016,0.003-2.463,0-2.459c0.002-0.443-0.199-0.88-0.536-1.166
			c-0.161-0.138-0.352-0.242-0.554-0.304c-0.269-0.068-0.541-0.142-0.799-0.246c-0.845-0.332-1.598-0.893-2.158-1.607
			c-0.47-0.598-0.806-1.301-0.974-2.043c-0.063-0.279-0.103-0.564-0.12-0.849c-0.005-0.097-0.009-0.194-0.008-0.291
			c0,0,0-12.874,0-12.874c0-0.435,0.056-0.871,0.165-1.292c0.201-0.776,0.586-1.505,1.116-2.107c0.572-0.653,1.313-1.156,2.13-1.448
			c0.148-0.054,0.303-0.1,0.455-0.14c0.136-0.034,0.274-0.066,0.4-0.129c0.279-0.13,0.517-0.346,0.672-0.612
			c0.138-0.235,0.212-0.507,0.212-0.779c0,0,0-2.435,0-2.435c0.001-0.033-0.002-0.064-0.003-0.096
			c-0.008-0.134-0.035-0.268-0.078-0.395c-0.146-0.441-0.503-0.802-0.941-0.956c-0.085-0.027-0.175-0.053-0.263-0.073
			c-0.169-0.044-0.341-0.097-0.505-0.158c-0.481-0.178-0.936-0.429-1.343-0.741c-1.219-0.925-1.98-2.413-2.015-3.943
			c0.001-0.048-0.004-0.098-0.002-0.145c0-0.048,0-12.878,0-12.922c0.002-0.179,0.013-0.362,0.033-0.539
			c0.066-0.574,0.23-1.138,0.482-1.658c0.554-1.152,1.554-2.08,2.744-2.545c0.213-0.084,0.434-0.155,0.656-0.209
			c0.221-0.047,0.434-0.139,0.615-0.275c0.352-0.259,0.582-0.675,0.614-1.111c0.005-0.188,0.015-2.551-0.005-2.726
			c-0.022-0.196-0.082-0.389-0.177-0.563c-0.147-0.271-0.378-0.497-0.653-0.636c-0.201-0.108-0.432-0.14-0.648-0.208
			c-1.257-0.374-2.353-1.25-2.995-2.394c-0.322-0.569-0.535-1.201-0.622-1.85c-0.026-0.194-0.042-0.395-0.045-0.591
			c0.004-0.021-0.004-0.074-0.001-0.096c0,0,0-12.874,0-12.874c-0.004-1.257,0.475-2.508,1.318-3.441
			c0.543-0.605,1.232-1.079,1.992-1.369c0.18-0.069,0.369-0.129,0.556-0.177c0.145-0.032,0.29-0.074,0.423-0.14
			c0.357-0.173,0.64-0.49,0.772-0.864c0.043-0.119,0.07-0.245,0.082-0.371c0.005-0.045,0.007-0.099,0.007-0.145c0,0,0-2.435,0-2.435
			c0-0.228-0.052-0.456-0.15-0.662c-0.151-0.318-0.415-0.581-0.734-0.729c-0.126-0.062-0.264-0.097-0.4-0.129
			c-0.169-0.043-0.341-0.098-0.505-0.158c-1.13-0.415-2.102-1.243-2.692-2.292c-0.42-0.741-0.652-1.589-0.667-2.44
			c0.021-0.962-0.036-7.142,0.029-8.051c0.054-1.328,0.184-2.714,0.367-4.03c0.6-4.304,1.818-8.549,3.32-12.622
			c3.137-8.415,7.572-16.384,12.375-23.954c7.119-11.128,15.432-21.826,23.942-31.921c2.004-2.422,6.258-7.212,8.3-9.568
			c0.184-0.214,0.373-0.464,0.537-0.696c0.439-0.627,0.803-1.316,1.085-2.027c0.447-1.126,0.702-2.328,0.818-3.532
			c0,0,0.014-0.15,0.014-0.15s0.012-0.151,0.012-0.151s0.011-0.152,0.011-0.152s0.01-0.153,0.01-0.153s0.009-0.154,0.009-0.154
			s0.013-0.312,0.013-0.312s0.008-0.316,0.008-0.316s0.003-0.32,0.003-0.32s0-7.074,0-7.074c-0.001-0.07-0.004-0.148-0.012-0.218
			c-0.056-0.505-0.321-0.984-0.721-1.297c-0.129-0.101-0.27-0.188-0.42-0.253c-0.171-0.074-0.353-0.126-0.538-0.148
			c-0.347-0.051-1.442,0.021-1.789-0.033c-0.423-0.056-0.824-0.26-1.121-0.566c-0.373-0.378-0.575-0.918-0.545-1.449
			c0.022-0.454,0.213-0.898,0.526-1.227c0.319-0.339,0.765-0.557,1.229-0.599l-1.758-0.004c0.009-4.325-0.012-17.584,0.005-22.115
			c0.013-0.277,0.047-0.556,0.104-0.827c0.211-1.016,0.74-1.964,1.494-2.678c0.702-0.668,1.598-1.132,2.549-1.318
			c0.271-0.053,0.549-0.085,0.825-0.095c0.138-0.009,30.912,0,31.07-0.003c0.198,0.022,30.874-0.019,31.069,0.003
			c0.276,0.009,0.555,0.041,0.825,0.095c0.951,0.186,1.847,0.649,2.549,1.318c0.754,0.714,1.283,1.661,1.494,2.678
			c0.056,0.271,0.092,0.551,0.104,0.827c0.01,4.575,0.003,17.723,0.005,22.115l-1.758,0.004c0.457,0.042,0.895,0.252,1.213,0.582
			c0.328,0.337,0.525,0.795,0.543,1.264c0.025,0.534-0.185,1.07-0.564,1.446c-0.305,0.308-0.717,0.505-1.148,0.553
			c-0.063,0.011-0.132,0.009-0.196,0.012c-0.02,0-1.288,0-1.309,0c0,0-0.021,0-0.021,0s-0.021,0-0.021,0
			c-0.133,0.004-0.268,0.02-0.398,0.051c-0.283,0.066-0.551,0.197-0.776,0.381c-0.377,0.305-0.632,0.756-0.696,1.237
			c-0.009,0.075-0.016,0.144-0.017,0.219c-0.016-0.01,0.01,7.109-0.001,7.116c0.004,0.469,0.015,0.945,0.053,1.408
			c0.095,1.219,0.325,2.437,0.75,3.586c0.281,0.763,0.651,1.497,1.108,2.17c0.187,0.277,0.394,0.545,0.608,0.8
			c2.009,2.331,6.432,7.308,8.3,9.568c8.51,10.098,16.822,20.79,23.942,31.921c4.803,7.572,9.238,15.538,12.375,23.954
			c1.502,4.075,2.72,8.317,3.32,12.622c0.183,1.318,0.314,2.7,0.367,4.03c0.046,0.937,0.029,6.972,0.029,8.052
			c-0.015,0.852-0.247,1.699-0.667,2.44c-0.59,1.05-1.562,1.876-2.692,2.292c-0.164,0.061-0.336,0.114-0.505,0.158
			c-0.145,0.035-0.29,0.071-0.423,0.14c-0.309,0.15-0.564,0.408-0.712,0.718c-0.098,0.206-0.15,0.434-0.15,0.662
			c0,0,0,2.435,0,2.435c0,0.04,0.002,0.081,0.005,0.121c0.011,0.134,0.039,0.268,0.085,0.395c0.132,0.374,0.415,0.691,0.772,0.864
			c0.133,0.067,0.278,0.106,0.423,0.14c0.187,0.048,0.375,0.108,0.556,0.177c0.76,0.29,1.449,0.764,1.992,1.369
			c0.843,0.933,1.322,2.183,1.318,3.441c0,0,0,12.874,0,12.874c-0.005,0.026,0.003,0.071-0.001,0.096
			c-0.004,0.196-0.019,0.396-0.045,0.591c-0.089,0.667-0.312,1.316-0.65,1.898c-0.654,1.136-1.758,1.999-3.018,2.361
			c-0.209,0.06-0.428,0.097-0.62,0.204c-0.273,0.144-0.501,0.374-0.643,0.648c-0.087,0.167-0.143,0.352-0.164,0.539
			c-0.021,0.138-0.007,2.541-0.006,2.702c0.026,0.445,0.257,0.871,0.616,1.136c0.181,0.136,0.394,0.228,0.615,0.275
			c0.222,0.055,0.444,0.126,0.656,0.209c1.208,0.472,2.219,1.42,2.768,2.594c0.246,0.521,0.404,1.085,0.464,1.658
			c0.017,0.161,0.027,0.328,0.028,0.489c0.01,0.119-0.006,12.853,0,12.97c-0.001,0.076-0.003,0.166-0.008,0.243
			c-0.077,1.478-0.83,2.902-2.009,3.797c-0.435,0.333-0.925,0.598-1.443,0.777c-0.257,0.098-0.572,0.145-0.782,0.241
			c-0.497,0.218-0.853,0.716-0.9,1.256c-0.005,0.045-0.007,0.099-0.007,0.145c-0.004,0.005,0.002,2.45,0,2.459
			c0,0.046,0.004,0.1,0.009,0.146c0.024,0.214,0.093,0.424,0.203,0.609c0.16,0.272,0.406,0.494,0.695,0.622
			c0.119,0.056,0.25,0.087,0.377,0.119c0.134,0.034,0.274,0.077,0.405,0.122c0.837,0.289,1.596,0.8,2.18,1.466
			c0.518,0.589,0.899,1.299,1.103,2.056c0.118,0.436,0.178,0.89,0.178,1.342c0,0,0,12.874,0,12.874
			c-0.001,0.074-0.002,0.167-0.006,0.242c-0.013,0.284-0.051,0.57-0.111,0.847c-0.168,0.778-0.52,1.517-1.02,2.137
			c-0.579,0.721-1.356,1.282-2.224,1.602c-0.164,0.06-0.336,0.115-0.505,0.158c-0.085,0.021-0.18,0.042-0.263,0.073
			c-0.177,0.063-0.343,0.159-0.485,0.281c-0.331,0.281-0.531,0.708-0.536,1.142c-0.001,0.022,0,2.436,0,2.459
			c0,0.088,0.008,0.181,0.024,0.269c0.033,0.188,0.103,0.371,0.202,0.533c0.16,0.262,0.401,0.474,0.681,0.599
			c0.167,0.08,0.353,0.106,0.529,0.16c0.362,0.105,0.715,0.251,1.045,0.433c1.307,0.71,2.269,2.015,2.562,3.473
			c0.07,0.34,0.106,0.691,0.106,1.039c0,0,0,12.874,0,12.874c0,0.091-0.003,0.199-0.008,0.291c-0.011,0.198-0.034,0.401-0.069,0.597
			c-0.095,0.541-0.277,1.069-0.538,1.553c-0.5,0.934-1.298,1.705-2.248,2.174c-0.304,0.15-0.625,0.272-0.952,0.36
			c0,0-0.051,0.013-0.051,0.013s-0.051,0.013-0.051,0.013s-0.051,0.012-0.051,0.012c-0.094,0.021-0.188,0.055-0.276,0.094
			c-0.402,0.177-0.717,0.538-0.842,0.959c-0.038,0.127-0.06,0.262-0.064,0.394c0,0-0.001,0.024-0.001,0.024l0,0.024v2.435
			c-0.001,0.325,0.106,0.651,0.301,0.913c0.19,0.257,0.462,0.454,0.767,0.55c0.727,0.17,1.423,0.47,2.02,0.923
			c0.8,0.597,1.419,1.435,1.757,2.375c0.157,0.436,0.256,0.896,0.291,1.358c0.035,0.797,0.009,1.7-0.008,2.498
			c-0.188,6.041-1.512,12.045-3.045,17.872c-3.626,13.037-7.818,26.997-8.664,40.519c-0.031,0.383-0.03,1.031-0.117,1.395
			c-0.059,0.278-0.156,0.55-0.292,0.801c-0.298,0.557-0.805,0.988-1.389,1.223c-0.268,0.118-0.521,0.143-0.761,0.272
			c-0.385,0.201-0.675,0.572-0.776,0.995c-0.025,0.103-0.04,0.211-0.043,0.317c0.001,0.012-0.001,0.036-0.001,0.048
			c0,0,0,2.436,0,2.436c0.001,0.011,0,0.037,0.001,0.049c0.001,0.03,0.003,0.068,0.006,0.098c0.027,0.279,0.132,0.551,0.301,0.775
			c0.162,0.217,0.384,0.389,0.634,0.494c0.163,0.07,0.341,0.096,0.509,0.152c0.29,0.09,0.57,0.215,0.828,0.375
			c1.193,0.733,1.709,2.152,1.897,3.479c0.153,1.25,4.246,21.778,4.526,23.594c0.048,0.416,0.063,0.842,0.01,1.259
			c-0.049,0.377-0.16,0.754-0.372,1.073c-0.26,0.4-0.676,0.659-1.128,0.792c-0.369,0.132-0.682,0.412-0.854,0.764
			c-0.104,0.21-0.159,0.446-0.159,0.68c0,0,0,2.449,0,2.449c0,0.04,0.002,0.085,0.005,0.124c0.011,0.134,0.04,0.268,0.085,0.395
			c0.138,0.389,0.44,0.715,0.817,0.882c0.154,0.073,0.324,0.102,0.488,0.143c0.245,0.062,0.488,0.146,0.719,0.25
			c0.653,0.292,1.214,0.775,1.621,1.362c0.362,0.517,0.616,1.108,0.797,1.711c0.109,0.367,0.195,0.753,0.258,1.13
			c1.028,6.358,2.071,13.611,2.725,20.014c0.161,2.031,0.058,4.672-1.956,5.775c-0.271,0.147-0.564,0.257-0.863,0.333
			c-0.316,0.068-0.555,0.144-0.81,0.355c-0.343,0.281-0.552,0.716-0.557,1.159c0.013,0.243-0.036,2.529,0.036,2.708
			c0.052,0.237,0.161,0.461,0.316,0.648c0.155,0.188,0.355,0.338,0.579,0.434c0.222,0.101,0.472,0.115,0.707,0.172
			c0.749,0.166,1.473,0.49,2.048,1.004c1.183,1.047,1.57,2.691,1.637,4.212c0.078,3.307,0.287,8.871,0.198,12.164
			c-0.042,0.593-0.127,1.192-0.276,1.767c-0.224,0.866-0.609,1.711-1.224,2.37c-0.588,0.639-1.379,1.067-2.217,1.279
			c-0.348,0.1-0.665,0.095-0.978,0.263c-0.294,0.153-0.535,0.403-0.676,0.702c-0.079,0.166-0.128,0.347-0.143,0.53
			c-0.002,0.281-0.029,2.535,0.017,2.783c0.074,0.436,0.346,0.831,0.727,1.056c0.104,0.062,0.216,0.112,0.331,0.148
			c0.131,0.037,0.286,0.066,0.419,0.098c0.739,0.176,1.461,0.47,2.073,0.925c0.553,0.407,1.006,0.948,1.319,1.558
			c0.344,0.663,0.533,1.398,0.623,2.137c0.136,0.342,0.042,11.36,0.068,12.005c0.006,3.052-0.988,5.735-4.332,6.24
			c-0.502,0.091-0.944,0.45-1.135,0.924c-0.06,0.145-0.097,0.299-0.11,0.455c-0.005,0.227-0.022,2.459,0.011,2.664
			c0.042,0.287,0.167,0.561,0.357,0.78c0.161,0.187,0.368,0.334,0.598,0.425c0.124,0.05,0.257,0.08,0.388,0.099
			c0.149,0.025,0.306,0.058,0.453,0.094c0.662,0.163,1.3,0.448,1.834,0.875c0.525,0.416,0.939,0.964,1.229,1.566
			c0.387,0.801,0.574,1.687,0.657,2.568c0.103,0.776,0.031,6.7,0.051,7.596c-0.022,3.402,0.001,10.185-0.209,13.528
			c-0.238,4.411-0.773,8.889-2.288,13.062c-2.037,5.591-5.633,10.691-10.469,14.199c-1.727,1.235-3.623,2.286-5.654,2.925
			c-1.53,0.483-3.14,0.763-4.729,0.968c-2.652,0.365-5.638,0.469-8.317,0.605C409.047,647.817,367.454,647.518,350.358,647.591z"/>
	</g>
</g>
</svg>
